<?xml version="1.0" encoding="iso-8859-1"?>
<!-- Generator: Adobe Illustrator 19.1.0, SVG Export Plug-In . SVG Version: 6.00 Build 0)  -->
<svg xmlns="http://www.w3.org/2000/svg" xmlns:xlink="http://www.w3.org/1999/xlink" version="1.1" id="Capa_1" x="0px" y="0px" viewBox="0 0 115.371 115.371" style="enable-background:new 0 0 115.371 115.371;" xml:space="preserve" width="512px" height="512px">
<g>
	<g>
		<path d="M108.376,64.748l-6.004-3.465c0.094-1.191,0.179-2.384,0.179-3.598c0-1.212-0.085-2.406-0.179-3.596l6.004-3.468    c4.905-2.831,6.586-9.104,3.753-14.008l-8.973-15.543c-1.899-3.29-5.346-5.13-8.891-5.13c-1.739,0-3.502,0.442-5.118,1.377    l-5.986,3.455c-1.969-1.359-4.066-2.539-6.248-3.578v-6.94C76.913,4.592,72.324,0,66.658,0H48.711    c-5.664,0-10.255,4.592-10.255,10.255v6.94c-2.179,1.039-4.276,2.219-6.245,3.578l-5.986-3.455    c-1.615-0.935-3.379-1.377-5.118-1.377c-3.545,0-6.992,1.84-8.891,5.13L3.242,36.614C0.409,41.519,2.09,47.791,6.995,50.622    l6.004,3.468c-0.094,1.189-0.181,2.384-0.181,3.596c0,1.214,0.087,2.406,0.181,3.598l-6.004,3.465    c-4.905,2.835-6.586,9.104-3.753,14.009L12.215,94.3c1.899,3.287,5.346,5.13,8.891,5.13c1.739,0,3.502-0.443,5.118-1.377    l5.986-3.457c1.969,1.364,4.066,2.543,6.245,3.58v6.94c0,5.663,4.592,10.255,10.255,10.255h17.947    c5.666,0,10.255-4.592,10.255-10.255v-6.94c2.182-1.037,4.279-2.216,6.248-3.58l5.986,3.457c1.615,0.934,3.379,1.377,5.118,1.377    c3.545,0,6.992-1.843,8.891-5.13l8.973-15.543C114.962,73.852,113.281,67.583,108.376,64.748 M105.469,74.911l-8.973,15.543    c-0.464,0.804-1.298,1.284-2.231,1.284c-0.445,0-0.875-0.115-1.272-0.348l-5.986-3.455l-4.215-2.434l-4.005,2.769    c-1.524,1.055-3.266,2.051-5.179,2.96l-4.387,2.088v4.857v6.94c0,1.414-1.149,2.563-2.563,2.563H48.711    c-1.414,0-2.564-1.149-2.564-2.563v-6.94v-4.857l-4.384-2.088c-1.913-0.909-3.654-1.905-5.179-2.96l-4.005-2.769l-4.215,2.434    l-5.987,3.455c-0.398,0.232-0.826,0.348-1.271,0.348c-0.933,0-1.767-0.48-2.231-1.284L9.902,74.911    c-0.46-0.799-0.358-1.56-0.255-1.945c0.103-0.383,0.394-1.095,1.194-1.558l6.004-3.465l4.208-2.432l-0.384-4.839    c-0.085-1.045-0.159-2.054-0.159-2.987c0-0.932,0.074-1.943,0.159-2.984l0.384-4.842l-4.208-2.429l-6.004-3.471    c-1.225-0.703-1.646-2.275-0.939-3.5l8.974-15.543c0.464-0.802,1.298-1.284,2.231-1.284c0.445,0,0.874,0.117,1.271,0.345    l5.987,3.458l4.215,2.434l4.005-2.769c1.524-1.055,3.266-2.054,5.179-2.96l4.384-2.088v-4.857v-6.94    c0-1.412,1.15-2.563,2.564-2.563h17.947c1.415,0,2.563,1.151,2.563,2.563v6.94v4.857l4.387,2.088    c1.913,0.906,3.654,1.905,5.179,2.96l4.005,2.769l4.215-2.434l5.986-3.458c0.397-0.228,0.827-0.345,1.272-0.345    c0.933,0,1.767,0.482,2.231,1.284l8.973,15.543c0.708,1.225,0.287,2.797-0.938,3.5l-6.004,3.471l-4.208,2.429l0.384,4.842    c0.083,1.041,0.156,2.053,0.156,2.984c0,0.934-0.074,1.942-0.156,2.987l-0.384,4.839l4.208,2.432l6.004,3.465    c0.8,0.463,1.091,1.175,1.194,1.558C105.827,73.352,105.93,74.112,105.469,74.911" fill="#cccccc"/>
		<path d="M57.686,38.457c-10.62,0-19.229,8.61-19.229,19.229s8.609,19.229,19.229,19.229s19.229-8.61,19.229-19.229    S68.305,38.457,57.686,38.457 M57.686,69.223c-6.361,0-11.537-5.175-11.537-11.537s5.176-11.537,11.537-11.537    c6.361,0,11.537,5.175,11.537,11.537S64.046,69.223,57.686,69.223" fill="#cccccc"/>
	</g>
	<g>
	</g>
	<g>
	</g>
	<g>
	</g>
	<g>
	</g>
	<g>
	</g>
	<g>
	</g>
	<g>
	</g>
	<g>
	</g>
	<g>
	</g>
	<g>
	</g>
	<g>
	</g>
	<g>
	</g>
	<g>
	</g>
	<g>
	</g>
	<g>
	</g>
</g>
<g>
</g>
<g>
</g>
<g>
</g>
<g>
</g>
<g>
</g>
<g>
</g>
<g>
</g>
<g>
</g>
<g>
</g>
<g>
</g>
<g>
</g>
<g>
</g>
<g>
</g>
<g>
</g>
<g>
</g>
</svg>
